<svg width="24" height="24" viewBox="0 0 24 24" fill="none" xmlns="http://www.w3.org/2000/svg">
<path d="M12 21C16.9706 21 21 16.9706 21 12C21 7.02944 16.9706 3 12 3C7.02944 3 3 7.02944 3 12C3 16.9706 7.02944 21 12 21Z" stroke="#0D9648" stroke-width="1.5" stroke-linecap="round" stroke-linejoin="round"/>
<path d="M11.8008 7L11.8008 9" stroke="#0D9648" stroke-width="1.5" stroke-linecap="round" stroke-linejoin="round"/>
<path d="M11.8008 15V17" stroke="#0D9648" stroke-width="1.5" stroke-linecap="round" stroke-linejoin="round"/>
<path d="M9.80078 15H13.5508C13.8823 15 14.2002 14.842 14.4347 14.5607C14.6691 14.2794 14.8008 13.8978 14.8008 13.5C14.8008 13.1022 14.6691 12.7206 14.4347 12.4393C14.2002 12.158 13.8823 12 13.5508 12H11.0508C10.7193 12 10.4013 11.842 10.1669 11.5607C9.93248 11.2794 9.80078 10.8978 9.80078 10.5C9.80078 10.1022 9.93248 9.72064 10.1669 9.43934C10.4013 9.15804 10.7193 9 11.0508 9L13.8008 9" stroke="#0D9648" stroke-width="1.5" stroke-linecap="round" stroke-linejoin="round"/>
</svg>
